<svg width="1425" height="802" viewBox="0 0 1425 802" fill="none" xmlns="http://www.w3.org/2000/svg">
<path d="M719.746 0H782.542L806.695 24.1566L821.186 62.8072L816.356 101.458L806.695 140.108L768.051 217.41L724.576 256.06L695.593 275.386L565.169 318.867L526.525 333.361L483.051 372.012L478.22 405.831L487.881 429.988L531.356 463.807L584.492 492.795L632.797 521.783L652.119 531.446H695.593L714.915 487.964L719.746 444.482L734.237 401L743.898 376.843L763.22 357.518L811.525 323.699L835.678 309.205L893.644 270.554L946.78 241.566L980.593 217.41L1004.75 202.916L1019.24 193.253L1033.73 183.59L1086.86 154.602L1120.68 130.446L1140 120.783L1193.14 86.9639L1236.61 62.8072H1280.08L1313.9 86.9639L1333.22 106.289L1367.03 130.446L1386.36 149.771L1420.17 188.422L1425 198.084V246.398L1405.68 294.711L1371.86 333.361L1183.47 521.783L1164.15 541.108L1130.34 574.928L1115.85 589.422L1086.86 613.578L956.441 744.024L917.797 777.843L893.644 802H835.678L787.373 782.675L724.576 758.518L647.288 715.036L565.169 666.723L550.678 661.892L526.525 647.398L473.39 613.578L439.576 594.253L386.441 565.265L338.136 536.277L294.661 512.12L246.356 492.795L212.542 487.964L207.712 483.133L135.254 468.639L57.9661 444.482L9.66099 415.494L-3.05176e-05 405.831V352.687L43.4745 314.036L140.085 256.06L178.729 236.735L222.203 217.41L280.169 198.084L318.814 183.59L367.119 169.096L405.763 154.602L454.068 135.277L521.695 96.6265L598.983 57.9759L690.763 9.66265L719.746 0ZM743.898 33.8193L705.254 43.4819L623.136 82.1325L545.847 125.614L483.051 159.434L429.915 183.59L347.797 212.578L313.983 227.072L260.847 241.566L198.051 270.554L159.407 285.048L101.441 318.867L72.4576 338.193L33.8135 367.181L38.644 396.169L62.7966 410.663L130.424 429.988L285 468.639L323.644 487.964L371.949 516.952L425.085 545.94L521.695 603.916L550.678 618.41L613.475 657.06L666.61 686.048L705.254 710.205L739.068 729.53L801.864 748.855L840.508 763.349H883.983L1217.29 429.988L1255.93 396.169L1265.59 386.506L1275.25 376.843L1352.54 299.542L1362.2 289.879L1386.36 246.398V202.916L1328.39 144.94L1284.92 111.12L1260.76 96.6265L1231.78 106.289L1140 164.265L1096.53 188.422L1028.9 231.904L941.949 285.048L898.475 314.036L883.983 318.867L864.661 333.361L816.356 367.181L801.864 372.012L782.542 391.337L768.051 405.831L758.39 434.819L743.898 521.783L734.237 545.94L705.254 565.265L695.593 570.096H656.949L579.661 531.446L565.169 521.783L550.678 512.121L512.034 492.795L458.898 449.313L444.407 429.988V367.181L473.39 333.361L550.678 285.048L666.61 246.398L710.085 222.241L743.898 183.59L763.22 154.602L782.542 101.458V53.1446L763.22 33.8193H743.898Z" fill="#B9B9B9"/>
</svg>
